<!-- Generated by IcoMoon.io -->
<svg version="1.1" xmlns="http://www.w3.org/2000/svg" width="32" height="32" viewBox="0 0 32 32">
<title>Group-33</title>
<path fill="#a1c487" d="M19.807 10.527c0.372-0.549 1.118-0.692 1.667-0.32s0.692 1.118 0.32 1.667l-6.508 9.6c-0.476 0.702-1.51 0.702-1.986 0l-3.091-4.56c-0.372-0.549-0.229-1.295 0.32-1.667s1.295-0.229 1.667 0.32l2.098 3.095 5.515-8.135z"></path>
<path fill="none" stroke="#a1c487" stroke-linejoin="miter" stroke-linecap="butt" stroke-miterlimit="4" stroke-width="3" d="M8 1.5h16c3.59 0 6.5 2.91 6.5 6.5v16c0 3.59-2.91 6.5-6.5 6.5h-16c-3.59 0-6.5-2.91-6.5-6.5v-16c0-3.59 2.91-6.5 6.5-6.5z"></path>
</svg>
